<svg width="25" height="24" viewBox="0 0 25 24" fill="none" xmlns="http://www.w3.org/2000/svg">
<path d="M14.8957 9.51457L9.85466 14.5556C9.20709 13.908 8.80859 13.0214 8.80859 12.0351C8.80859 10.0625 10.4026 8.46851 12.3752 8.46851C13.3615 8.46851 14.2481 8.86701 14.8957 9.51457Z" stroke="#797979" stroke-width="1.49438" stroke-linecap="round" stroke-linejoin="round"/>
<path d="M18.1715 5.82825C16.428 4.5132 14.4355 3.7959 12.3733 3.7959C8.85655 3.7959 5.57888 5.8681 3.29747 9.4546C2.40084 10.8593 2.40084 13.2204 3.29747 14.6251C4.08451 15.8605 5.00106 16.9265 5.99731 17.7833" stroke="#797979" stroke-width="1.49438" stroke-linecap="round" stroke-linejoin="round"/>
<path d="M8.80469 19.5369C9.94041 20.0151 11.1459 20.2741 12.3713 20.2741C15.888 20.2741 19.1657 18.2019 21.4471 14.6154C22.3437 13.2107 22.3437 10.8495 21.4471 9.44483C21.1183 8.92678 20.7597 8.43862 20.3911 7.98035" stroke="#797979" stroke-width="1.49438" stroke-linecap="round" stroke-linejoin="round"/>
<path d="M15.8719 12.733C15.6129 14.1377 14.4672 15.2834 13.0625 15.5425" stroke="#797979" stroke-width="1.49438" stroke-linecap="round" stroke-linejoin="round"/>
<path d="M9.85215 14.5558L2.41016 21.9978" stroke="#797979" stroke-width="1.49438" stroke-linecap="round" stroke-linejoin="round"/>
<path d="M22.3365 2.073L14.8945 9.51499" stroke="#797979" stroke-width="1.49438" stroke-linecap="round" stroke-linejoin="round"/>
</svg>
