<svg width="22" height="20" viewBox="0 0 22 20" fill="none" xmlns="http://www.w3.org/2000/svg">
<path d="M13.2707 7.71867L8.22966 12.7597C7.58209 12.1121 7.18359 11.2255 7.18359 10.2392C7.18359 8.26661 8.77759 6.67261 10.7502 6.67261C11.7365 6.67261 12.6231 7.07111 13.2707 7.71867Z" stroke="#797979" stroke-width="1.49438" stroke-linecap="round" stroke-linejoin="round"/>
<path d="M8.18244 12.7136L13.2235 7.67256C13.871 8.32012 14.2695 9.20678 14.2695 10.1931C14.2695 12.1656 12.6755 13.7596 10.703 13.7596C9.71667 13.7596 8.83001 13.3611 8.18244 12.7136Z" stroke="#797979" stroke-width="1.49438" stroke-linecap="round" stroke-linejoin="round"/>
<path d="M16.5465 4.03235C14.803 2.7173 12.8105 2 10.7483 2C7.23155 2 3.95388 4.0722 1.67247 7.6587C0.775844 9.06341 0.775844 11.4245 1.67247 12.8292C2.45951 14.0646 3.37606 15.1306 4.37231 15.9874" stroke="#797979" stroke-width="1.49438" stroke-linecap="round" stroke-linejoin="round"/>
<path d="M7.17969 16.741C8.31541 17.2192 9.52088 17.4782 10.7463 17.4782C14.263 17.4782 17.5407 15.406 19.8221 11.8195C20.7187 10.4148 20.7187 8.05365 19.8221 6.64894C19.4933 6.13089 19.1347 5.64272 18.7661 5.18445" stroke="#797979" stroke-width="1.49438" stroke-linecap="round" stroke-linejoin="round"/>
</svg>
