<svg width="25" height="24" viewBox="0 0 25 24" fill="none" xmlns="http://www.w3.org/2000/svg">
<path d="M6.76562 10.0429V8.05038C6.76562 4.75279 7.76188 2.07288 12.7431 2.07288C17.7244 2.07288 18.7206 4.75279 18.7206 8.05038V10.0429" stroke="#797979" stroke-width="1.49438" stroke-linecap="round" stroke-linejoin="round"/>
<path d="M12.7445 18.511C14.1201 18.511 15.2352 17.3959 15.2352 16.0204C15.2352 14.6449 14.1201 13.5298 12.7445 13.5298C11.369 13.5298 10.2539 14.6449 10.2539 16.0204C10.2539 17.3959 11.369 18.511 12.7445 18.511Z" stroke="#797979" stroke-width="1.49438" stroke-linecap="round" stroke-linejoin="round"/>
<path d="M17.725 21.9976H7.7625C3.7775 21.9976 2.78125 21.0014 2.78125 17.0164V15.0239C2.78125 11.0389 3.7775 10.0426 7.7625 10.0426H17.725C21.71 10.0426 22.7063 11.0389 22.7063 15.0239V17.0164C22.7063 21.0014 21.71 21.9976 17.725 21.9976Z" stroke="#797979" stroke-width="1.49438" stroke-linecap="round" stroke-linejoin="round"/>
</svg>
