<svg width="25" height="40" viewBox="0 0 25 40" fill="none" xmlns="http://www.w3.org/2000/svg">
<path fill-rule="evenodd" clip-rule="evenodd" d="M25 12.924C25 5.893 19.594 0 12.51 0C5.426 0 0 5.897 0 12.93C0 15.25 0.324 17 1.423 19H1.402L12.097 39.621C12.499 40.172 12.921 39.589 12.921 39.589C12.56 40.13 23.616 19 23.616 19H23.607C24.695 17 25 15.246 25 12.924ZM6.751 12.528C6.751 9.211 9.33 6.524 12.51 6.524C15.689 6.524 18.27 9.211 18.27 12.528C18.27 15.845 15.689 18.533 12.51 18.533C9.33 18.533 6.751 15.846 6.751 12.528Z" fill="#303030"/>
</svg>
