<svg width="210" height="110" viewBox="0 0 210 110" fill="none" xmlns="http://www.w3.org/2000/svg">
<path d="M29.85 1.99999C44.95 1.99999 56.5 4.74999 64.5 10.25C72.6 15.75 76.65 24.35 76.65 36.05C76.65 42.15 75.55 47.4 73.35 51.8C71.25 56.1 68.15 59.65 64.05 62.45C59.95 65.15 54.95 67.15 49.05 68.45C43.15 69.75 36.4 70.4 28.8 70.4H19.35V107H0.450001V4.55C4.85 3.55 9.7 2.9 15 2.59999C20.4 2.19999 25.35 1.99999 29.85 1.99999ZM31.2 18.35C26.4 18.35 22.45 18.5 19.35 18.8V54.2H28.5C37.6 54.2 44.6 52.95 49.5 50.45C54.4 47.85 56.85 43 56.85 35.9C56.85 32.5 56.2 29.65 54.9 27.35C53.6 25.05 51.8 23.25 49.5 21.95C47.2 20.65 44.45 19.75 41.25 19.25C38.15 18.65 34.8 18.35 31.2 18.35ZM77.107 54.95C77.107 60.65 77.807 65.85 79.207 70.55C80.607 75.15 82.607 79.1 85.207 82.4C87.907 85.6 91.157 88.1 94.957 89.9C98.757 91.7 103.057 92.6 107.857 92.6C112.557 92.6 116.807 91.7 120.607 89.9C124.407 88.1 127.607 85.6 130.207 82.4C132.907 79.1 134.957 75.15 136.357 70.55C137.757 65.85 138.457 60.65 138.457 54.95C138.457 49.25 137.757 44.1 136.357 39.5C134.957 34.8 132.907 30.85 130.207 27.65C127.607 24.35 124.407 21.8 120.607 20C116.807 18.2 112.557 17.3 107.857 17.3C103.057 17.3 98.757 18.2 94.957 20C91.157 21.8 87.907 24.35 85.207 27.65C82.607 30.95 80.607 34.9 79.207 39.5C77.807 44.1 77.107 49.25 77.107 54.95ZM158.257 54.95C158.257 63.85 156.907 71.7 154.207 78.5C151.607 85.3 148.007 91 143.407 95.6C138.907 100.1 133.607 103.5 127.507 105.8C121.407 108.1 114.907 109.25 108.007 109.25C101.107 109.25 94.557 108.1 88.357 105.8C82.257 103.5 76.907 100.1 72.307 95.6C67.807 91 64.207 85.3 61.507 78.5C58.807 71.7 57.457 63.85 57.457 54.95C57.457 46.05 58.807 38.25 61.507 31.55C64.207 24.75 67.857 19.05 72.457 14.45C77.157 9.84999 82.557 6.39999 88.657 4.09999C94.757 1.79999 101.207 0.649992 108.007 0.649992C114.807 0.649992 121.257 1.79999 127.357 4.09999C133.457 6.39999 138.757 9.84999 143.257 14.45C147.857 19.05 151.507 24.75 154.207 31.55C156.907 38.25 158.257 46.05 158.257 54.95ZM170.623 92.9C177.423 92.9 182.373 91.75 185.473 89.45C188.573 87.15 190.123 83.9 190.123 79.7C190.123 77.2 189.573 75.05 188.473 73.25C187.473 71.45 185.973 69.85 183.973 68.45C182.073 66.95 179.723 65.6 176.923 64.4C174.123 63.1 170.923 61.85 167.323 60.65C163.723 59.35 160.223 57.95 156.823 56.45C153.523 54.85 150.573 52.9 147.973 50.6C145.473 48.3 143.423 45.55 141.823 42.35C140.323 39.15 139.573 35.3 139.573 30.8C139.573 21.4 142.823 14.05 149.323 8.75C155.823 3.34999 164.673 0.649992 175.873 0.649992C182.373 0.649992 188.123 1.39999 193.123 2.9C198.223 4.3 202.223 5.85 205.123 7.54999L199.273 22.85C195.873 20.95 192.123 19.5 188.023 18.5C184.023 17.5 179.873 17 175.573 17C170.473 17 166.473 18.05 163.573 20.15C160.773 22.25 159.373 25.2 159.373 29C159.373 31.3 159.823 33.3 160.723 35C161.723 36.6 163.073 38.05 164.773 39.35C166.573 40.65 168.623 41.85 170.923 42.95C173.323 44.05 175.923 45.1 178.723 46.1C183.623 47.9 187.973 49.75 191.773 51.65C195.673 53.45 198.923 55.65 201.523 58.25C204.223 60.75 206.273 63.75 207.673 67.25C209.073 70.65 209.773 74.8 209.773 79.7C209.773 89.1 206.423 96.4 199.723 101.6C193.123 106.7 183.423 109.25 170.623 109.25C166.323 109.25 162.373 108.95 158.773 108.35C155.273 107.85 152.123 107.2 149.323 106.4C146.623 105.6 144.273 104.8 142.273 104C140.273 103.1 138.673 102.3 137.473 101.6L143.023 86.15C145.723 87.65 149.373 89.15 153.973 90.65C158.573 92.15 164.123 92.9 170.623 92.9Z" fill="url(#paint0_linear_1_137)"/>
<path d="M64.5 10.25L63.3669 11.8981L63.3765 11.9046L64.5 10.25ZM73.35 51.8L71.5611 50.9056L71.557 50.9139L71.5529 50.9223L73.35 51.8ZM64.05 62.45L65.15 64.1203L65.164 64.1111L65.1779 64.1016L64.05 62.45ZM49.05 68.45L49.4804 70.4032L49.4804 70.4031L49.05 68.45ZM19.35 70.4V68.4H17.35V70.4H19.35ZM19.35 107V109H21.35V107H19.35ZM0.450001 107H-1.55V109H0.450001V107ZM0.450001 4.55L0.00675884 2.59973L-1.55 2.95354V4.55H0.450001ZM15 2.59999L15.113 4.5968L15.1304 4.59581L15.1477 4.59453L15 2.59999ZM19.35 18.8L19.1574 16.8093L17.35 16.9842V18.8H19.35ZM19.35 54.2H17.35V56.2H19.35V54.2ZM49.5 50.45L50.4089 52.2315L50.4232 52.2242L50.4374 52.2167L49.5 50.45ZM54.9 27.35L53.1589 28.3341L53.1589 28.3341L54.9 27.35ZM41.25 19.25L40.87 21.2136L40.9055 21.2204L40.9412 21.226L41.25 19.25ZM29.85 3.99999C44.7539 3.99999 55.8385 6.72227 63.367 11.8981L65.6331 8.60191C57.1615 2.77772 45.1461 -7.15256e-06 29.85 -7.15256e-06V3.99999ZM63.3765 11.9046C70.8161 16.9562 74.65 24.8645 74.65 36.05H78.65C78.65 23.8355 74.3839 14.5438 65.6235 8.59538L63.3765 11.9046ZM74.65 36.05C74.65 41.9125 73.593 46.8419 71.5611 50.9056L75.1389 52.6944C77.507 47.9581 78.65 42.3875 78.65 36.05H74.65ZM71.5529 50.9223C69.6109 54.8987 66.7469 58.1863 62.9221 60.7984L65.1779 64.1016C69.5531 61.1137 72.8891 57.3013 75.1471 52.6777L71.5529 50.9223ZM62.95 60.7797C59.0951 63.3183 54.3343 65.2377 48.6196 66.4969L49.4804 70.4031C55.5658 69.0623 60.8049 66.9817 65.15 64.1203L62.95 60.7797ZM48.6196 66.4969C42.8917 67.7589 36.2905 68.4 28.8 68.4V72.4C36.5095 72.4 43.4083 71.7411 49.4804 70.4032L48.6196 66.4969ZM28.8 68.4H19.35V72.4H28.8V68.4ZM17.35 70.4V107H21.35V70.4H17.35ZM19.35 105H0.450001V109H19.35V105ZM2.45 107V4.55H-1.55V107H2.45ZM0.893242 6.50026C5.16768 5.5288 9.90535 4.89157 15.113 4.5968L14.887 0.60319C9.49466 0.908418 4.53233 1.57119 0.00675884 2.59973L0.893242 6.50026ZM15.1477 4.59453C20.5081 4.19747 25.408 3.99999 29.85 3.99999V-7.15256e-06C25.292 -7.15256e-06 20.2919 0.20252 14.8523 0.605459L15.1477 4.59453ZM31.2 16.35C26.366 16.35 22.3458 16.5007 19.1574 16.8093L19.5427 20.7907C22.5542 20.4993 26.434 20.35 31.2 20.35V16.35ZM17.35 18.8V54.2H21.35V18.8H17.35ZM19.35 56.2H28.5V52.2H19.35V56.2ZM28.5 56.2C37.7338 56.2 45.1008 54.9398 50.4089 52.2315L48.5911 48.6685C44.0992 50.9602 37.4662 52.2 28.5 52.2V56.2ZM50.4374 52.2167C56.1813 49.1689 58.85 43.4969 58.85 35.9H54.85C54.85 42.5031 52.6187 46.5311 48.5626 48.6833L50.4374 52.2167ZM58.85 35.9C58.85 32.2518 58.1528 29.0403 56.6411 26.3659L53.1589 28.3341C54.2472 30.2597 54.85 32.7482 54.85 35.9H58.85ZM56.6411 26.3659C55.1623 23.7494 53.1006 21.6877 50.4841 20.2089L48.5159 23.6911C50.4994 24.8123 52.0377 26.3506 53.1589 28.3341L56.6411 26.3659ZM50.4841 20.2089C47.9336 18.7673 44.9443 17.803 41.5588 17.274L40.9412 21.226C43.9557 21.697 46.4664 22.5327 48.5159 23.6911L50.4841 20.2089ZM41.63 17.2864C38.3888 16.6591 34.9102 16.35 31.2 16.35V20.35C34.6898 20.35 37.9112 20.6409 40.87 21.2136L41.63 17.2864ZM79.207 70.55L77.2902 71.121L77.2937 71.1323L79.207 70.55ZM85.207 82.4L83.636 83.6377L83.6568 83.6641L83.6784 83.6897L85.207 82.4ZM94.957 89.9L95.8132 88.0925L94.957 89.9ZM120.607 89.9L119.751 88.0925L119.751 88.0925L120.607 89.9ZM130.207 82.4L128.659 81.1335L128.655 81.1388L130.207 82.4ZM136.357 70.55L138.27 71.1323L138.274 71.121L136.357 70.55ZM136.357 39.5L134.44 40.071L134.444 40.0823L136.357 39.5ZM130.207 27.65L128.636 28.8877L128.657 28.9141L128.678 28.9397L130.207 27.65ZM94.957 20L94.1009 18.1925L94.1009 18.1925L94.957 20ZM85.207 27.65L83.6591 26.3835L83.6475 26.3978L83.636 26.4122L85.207 27.65ZM79.207 39.5L77.2937 38.9177L77.2937 38.9177L79.207 39.5ZM154.207 78.5L152.348 77.7619L152.343 77.7738L152.339 77.7857L154.207 78.5ZM143.407 95.6L144.821 97.0142L144.821 97.0142L143.407 95.6ZM88.357 105.8L87.6514 107.671L87.6614 107.675L88.357 105.8ZM72.307 95.6L70.8774 96.9986L70.8927 97.0143L70.9084 97.0297L72.307 95.6ZM61.507 78.5L59.6482 79.2381L59.6482 79.2381L61.507 78.5ZM61.507 31.55L63.3621 32.2976L63.3659 32.2881L61.507 31.55ZM72.457 14.45L71.0581 13.0207L71.0504 13.0282L71.0428 13.0358L72.457 14.45ZM88.657 4.09999L89.3626 5.97139L89.3626 5.97139L88.657 4.09999ZM127.357 4.09999L128.063 2.2286L128.063 2.2286L127.357 4.09999ZM143.257 14.45L141.827 15.8486L141.835 15.8564L141.843 15.8642L143.257 14.45ZM154.207 31.55L152.348 32.2881L152.352 32.2975L154.207 31.55ZM75.107 54.95C75.107 60.8127 75.827 66.2085 77.2903 71.121L81.1238 69.979C79.7871 65.4915 79.107 60.4872 79.107 54.95H75.107ZM77.2937 71.1323C78.7557 75.9362 80.8616 80.1163 83.636 83.6377L86.778 81.1623C84.3525 78.0837 82.4583 74.3638 81.1204 69.9677L77.2937 71.1323ZM83.6784 83.6897C86.5638 87.1094 90.0434 89.7855 94.1009 91.7075L95.8132 88.0925C92.2707 86.4145 89.2503 84.0906 86.7356 81.1103L83.6784 83.6897ZM94.1009 91.7075C98.204 93.6511 102.803 94.6 107.857 94.6V90.6C103.311 90.6 99.3101 89.7489 95.8132 88.0925L94.1009 91.7075ZM107.857 94.6C112.818 94.6 117.366 93.6485 121.463 91.7075L119.751 88.0925C116.249 89.7515 112.296 90.6 107.857 90.6V94.6ZM121.463 91.7075C125.528 89.7822 128.967 87.0977 131.759 83.6612L128.655 81.1388C126.247 84.1023 123.286 86.4178 119.751 88.0925L121.463 91.7075ZM131.755 83.6665C134.64 80.1402 136.804 75.9503 138.27 71.1323L134.444 69.9677C133.11 74.3497 131.174 78.0598 128.659 81.1335L131.755 83.6665ZM138.274 71.121C139.737 66.2085 140.457 60.8127 140.457 54.95H136.457C136.457 60.4872 135.777 65.4915 134.44 69.979L138.274 71.121ZM140.457 54.95C140.457 49.0882 139.737 43.7376 138.27 38.9177L134.444 40.0823C135.777 44.4624 136.457 49.4118 136.457 54.95H140.457ZM138.274 38.929C136.809 34.01 134.641 29.8035 131.736 26.3603L128.678 28.9397C131.173 31.8965 133.106 35.59 134.44 40.071L138.274 38.929ZM131.778 26.4122C128.987 22.8695 125.542 20.1246 121.463 18.1925L119.751 21.8075C123.272 23.4754 126.227 25.8305 128.636 28.8877L131.778 26.4122ZM121.463 18.1925C117.366 16.2515 112.818 15.3 107.857 15.3V19.3C112.296 19.3 116.249 20.1485 119.751 21.8075L121.463 18.1925ZM107.857 15.3C102.803 15.3 98.204 16.2489 94.1009 18.1925L95.8132 21.8075C99.3101 20.1511 103.311 19.3 107.857 19.3V15.3ZM94.1009 18.1925C90.0292 20.1212 86.544 22.8575 83.6591 26.3835L86.7549 28.9165C89.27 25.8425 92.2849 23.4788 95.8132 21.8075L94.1009 18.1925ZM83.636 26.4122C80.8616 29.9337 78.7557 34.1138 77.2937 38.9177L81.1204 40.0823C82.4583 35.6862 84.3525 31.9663 86.778 28.8877L83.636 26.4122ZM77.2937 38.9177C75.8267 43.7376 75.107 49.0882 75.107 54.95H79.107C79.107 49.4118 79.7873 44.4624 81.1204 40.0823L77.2937 38.9177ZM156.257 54.95C156.257 63.6504 154.937 71.2416 152.348 77.7619L156.066 79.2381C158.877 72.1583 160.257 64.0496 160.257 54.95H156.257ZM152.339 77.7857C149.827 84.3545 146.372 89.8071 141.993 94.1858L144.821 97.0142C149.643 92.1929 153.387 86.2455 156.075 79.2143L152.339 77.7857ZM141.993 94.1858C137.699 98.4798 132.642 101.726 126.801 103.929L128.213 107.671C134.572 105.274 140.115 101.72 144.821 97.0142L141.993 94.1858ZM126.801 103.929C120.94 106.139 114.68 107.25 108.007 107.25V111.25C115.134 111.25 121.874 110.061 128.213 107.671L126.801 103.929ZM108.007 107.25C101.334 107.25 95.0204 106.139 89.0526 103.925L87.6614 107.675C94.0936 110.061 100.88 111.25 108.007 111.25V107.25ZM89.0626 103.929C83.2182 101.725 78.105 98.4741 73.7056 94.1703L70.9084 97.0297C75.709 101.726 81.2958 105.275 87.6514 107.671L89.0626 103.929ZM73.7367 94.2014C69.4458 89.8152 65.9813 84.3491 63.3659 77.7619L59.6482 79.2381C62.4327 86.2509 66.1682 92.1848 70.8774 96.9986L73.7367 94.2014ZM63.3659 77.7619C60.7769 71.2416 59.457 63.6504 59.457 54.95H55.457C55.457 64.0496 56.8371 72.1583 59.6482 79.2381L63.3659 77.7619ZM59.457 54.95C59.457 46.2486 60.7772 38.7118 63.3621 32.2975L59.652 30.8024C56.8368 37.7882 55.457 45.8514 55.457 54.95H59.457ZM63.3659 32.2881C65.9778 25.7098 69.4866 20.2488 73.8712 15.8642L71.0428 13.0358C66.2274 17.8512 62.4362 23.7902 59.6482 30.8119L63.3659 32.2881ZM73.856 15.8793C78.3598 11.4714 83.5242 8.17276 89.3626 5.97139L87.9514 2.2286C81.5899 4.62722 75.9543 8.22863 71.0581 13.0207L73.856 15.8793ZM89.3626 5.97139C95.2275 3.76006 101.438 2.64999 108.007 2.64999V-1.35001C100.977 -1.35001 94.2866 -0.160074 87.9514 2.2286L89.3626 5.97139ZM108.007 2.64999C114.577 2.64999 120.787 3.76006 126.651 5.97139L128.063 2.2286C121.727 -0.160074 115.038 -1.35001 108.007 -1.35001V2.64999ZM126.651 5.97139C132.482 8.16986 137.534 11.4599 141.827 15.8486L144.687 13.0514C139.98 8.24009 134.432 4.63012 128.063 2.2286L126.651 5.97139ZM141.843 15.8642C146.227 20.2488 149.736 25.7098 152.348 32.2881L156.066 30.8119C153.278 23.7902 149.487 17.8512 144.671 13.0358L141.843 15.8642ZM152.352 32.2975C154.937 38.7118 156.257 46.2486 156.257 54.95H160.257C160.257 45.8514 158.877 37.7882 156.062 30.8024L152.352 32.2975ZM185.473 89.45L186.664 91.0562L186.664 91.0562L185.473 89.45ZM188.473 73.25L186.724 74.2213L186.744 74.2575L186.766 74.2929L188.473 73.25ZM183.973 68.45L182.733 70.0198L182.779 70.0554L182.826 70.0885L183.973 68.45ZM176.923 64.4L176.08 66.214L176.107 66.2266L176.135 66.2383L176.923 64.4ZM167.323 60.65L166.643 62.5311L166.667 62.5395L166.69 62.5474L167.323 60.65ZM156.823 56.45L155.95 58.2496L155.982 58.2653L156.015 58.2798L156.823 56.45ZM147.973 50.6L146.619 52.0719L146.633 52.0851L146.648 52.098L147.973 50.6ZM141.823 42.35L140.012 43.1989L140.022 43.2218L140.034 43.2444L141.823 42.35ZM149.323 8.75L150.587 10.3L150.594 10.2942L150.601 10.2884L149.323 8.75ZM193.123 2.9L192.548 4.81565L192.571 4.82242L192.593 4.82865L193.123 2.9ZM205.123 7.54999L206.991 8.26427L207.596 6.68153L206.134 5.8246L205.123 7.54999ZM199.273 22.85L198.297 24.5959L200.315 25.7236L201.141 23.5643L199.273 22.85ZM188.023 18.5L187.538 20.4403L187.549 20.443L188.023 18.5ZM163.573 20.15L162.4 18.5301L162.386 18.5399L162.373 18.55L163.573 20.15ZM160.723 35L158.955 35.9358L158.989 35.9992L159.027 36.06L160.723 35ZM164.773 39.35L163.558 40.9387L163.579 40.9553L163.602 40.9714L164.773 39.35ZM170.923 42.95L170.06 44.7543L170.074 44.7613L170.089 44.7681L170.923 42.95ZM178.723 46.1L179.412 44.2227L179.404 44.2195L179.395 44.2165L178.723 46.1ZM191.773 51.65L190.878 53.4389L190.906 53.4528L190.935 53.4659L191.773 51.65ZM201.523 58.25L200.108 59.6642L200.136 59.6914L200.164 59.7175L201.523 58.25ZM207.673 67.25L205.816 67.9928L205.819 68.0022L205.823 68.0115L207.673 67.25ZM199.723 101.6L200.946 103.183L200.949 103.18L199.723 101.6ZM158.773 108.35L159.101 106.377L159.079 106.373L159.055 106.37L158.773 108.35ZM149.323 106.4L148.754 108.318L148.764 108.32L148.773 108.323L149.323 106.4ZM142.273 104L141.452 105.824L141.491 105.841L141.53 105.857L142.273 104ZM137.473 101.6L135.59 100.924L135.028 102.489L136.465 103.328L137.473 101.6ZM143.023 86.15L143.994 84.4017L141.936 83.2585L141.14 85.4739L143.023 86.15ZM153.973 90.65L153.353 92.5515L153.353 92.5515L153.973 90.65ZM170.623 94.9C177.562 94.9 183.043 93.7429 186.664 91.0562L184.281 87.8438C181.702 89.7571 177.283 90.9 170.623 90.9V94.9ZM186.664 91.0562C190.323 88.342 192.123 84.4685 192.123 79.7H188.123C188.123 83.3315 186.823 85.958 184.281 87.8438L186.664 91.0562ZM192.123 79.7C192.123 76.9008 191.504 74.3751 190.179 72.2071L186.766 74.2929C187.641 75.7249 188.123 77.4992 188.123 79.7H192.123ZM190.221 72.2787C189.049 70.1688 187.322 68.3534 185.12 66.8115L182.826 70.0885C184.623 71.3466 185.897 72.7312 186.724 74.2213L190.221 72.2787ZM185.212 66.8802C183.144 65.2475 180.633 63.814 177.71 62.5617L176.135 66.2383C178.813 67.386 181.002 68.6525 182.733 70.0198L185.212 66.8802ZM177.765 62.586C174.883 61.2481 171.611 59.9713 167.955 58.7526L166.69 62.5474C170.234 63.7287 173.362 64.9519 176.08 66.214L177.765 62.586ZM168.002 58.7689C164.444 57.484 160.987 56.1011 157.63 54.6202L156.015 58.2798C159.459 59.7989 163.001 61.216 166.643 62.5311L168.002 58.7689ZM157.695 54.6504C154.55 53.1253 151.754 51.2747 149.298 49.102L146.648 52.098C149.391 54.5253 152.495 56.5746 155.95 58.2496L157.695 54.6504ZM149.327 49.1281C147.015 47.0012 145.109 44.45 143.612 41.4556L140.034 43.2444C141.737 46.65 143.93 49.5988 146.619 52.0719L149.327 49.1281ZM143.634 41.5011C142.287 38.629 141.573 35.0841 141.573 30.8H137.573C137.573 35.5159 138.358 39.671 140.012 43.1989L143.634 41.5011ZM141.573 30.8C141.573 21.9189 144.612 15.1712 150.587 10.3L148.059 7.19996C141.033 12.9288 137.573 20.881 137.573 30.8H141.573ZM150.601 10.2884C156.639 5.27175 164.986 2.64999 175.873 2.64999V-1.35001C164.359 -1.35001 155.006 1.42824 148.045 7.21161L150.601 10.2884ZM175.873 2.64999C182.224 2.64999 187.774 3.38331 192.548 4.81565L193.697 0.984347C188.472 -0.583323 182.522 -1.35001 175.873 -1.35001V2.64999ZM192.593 4.82865C197.609 6.20554 201.423 7.69946 204.111 9.27539L206.134 5.8246C203.022 4.00053 198.836 2.39446 193.652 0.971347L192.593 4.82865ZM203.255 6.83572L197.405 22.1357L201.141 23.5643L206.991 8.26427L203.255 6.83572ZM200.248 21.1041C196.678 19.109 192.757 17.5962 188.497 16.557L187.549 20.443C191.488 21.4038 195.067 22.791 198.297 24.5959L200.248 21.1041ZM188.508 16.5597C184.342 15.5184 180.029 15 175.573 15V19C179.716 19 183.703 19.4816 187.538 20.4403L188.508 16.5597ZM175.573 15C170.224 15 165.758 16.0981 162.4 18.5301L164.746 21.7699C167.187 20.0019 170.721 19 175.573 19V15ZM162.373 18.55C159.021 21.0637 157.373 24.633 157.373 29H161.373C161.373 25.767 162.524 23.4363 164.773 21.75L162.373 18.55ZM157.373 29C157.373 31.5627 157.875 33.8961 158.955 35.9358L162.49 34.0642C161.77 32.7039 161.373 31.0373 161.373 29H157.373ZM159.027 36.06C160.17 37.8891 161.692 39.5122 163.558 40.9387L165.988 37.7613C164.453 36.5878 163.275 35.3109 162.419 33.94L159.027 36.06ZM163.602 40.9714C165.512 42.3508 167.667 43.6101 170.06 44.7543L171.786 41.1457C169.578 40.0899 167.634 38.9492 165.944 37.7286L163.602 40.9714ZM170.089 44.7681C172.548 45.895 175.202 46.9664 178.05 47.9835L179.395 44.2165C176.643 43.2336 174.097 42.205 171.756 41.1319L170.089 44.7681ZM178.033 47.9773C182.878 49.7572 187.158 51.5786 190.878 53.4389L192.667 49.8611C188.788 47.9214 184.367 46.0428 179.412 44.2227L178.033 47.9773ZM190.935 53.4659C194.656 55.1834 197.701 57.2565 200.108 59.6642L202.937 56.8358C200.145 54.0435 196.69 51.7166 192.611 49.8341L190.935 53.4659ZM200.164 59.7175C202.641 62.0109 204.523 64.7614 205.816 67.9928L209.53 66.5072C208.022 62.7386 205.805 59.4891 202.881 56.7825L200.164 59.7175ZM205.823 68.0115C207.097 71.1041 207.773 74.9791 207.773 79.7H211.773C211.773 74.6209 211.049 70.1959 209.522 66.4885L205.823 68.0115ZM207.773 79.7C207.773 88.5587 204.651 95.2435 198.496 100.02L200.949 103.18C208.195 97.5565 211.773 89.6413 211.773 79.7H207.773ZM198.5 100.017C192.393 104.736 183.204 107.25 170.623 107.25V111.25C183.642 111.25 193.852 108.664 200.946 103.183L198.5 100.017ZM170.623 107.25C166.414 107.25 162.576 106.956 159.101 106.377L158.444 110.323C162.17 110.944 166.231 111.25 170.623 111.25V107.25ZM159.055 106.37C155.627 105.88 152.568 105.247 149.872 104.477L148.773 108.323C151.677 109.153 154.918 109.82 158.49 110.33L159.055 106.37ZM149.891 104.482C147.233 103.695 144.944 102.914 143.015 102.143L141.53 105.857C143.601 106.686 146.012 107.505 148.754 108.318L149.891 104.482ZM143.093 102.176C141.125 101.291 139.596 100.523 138.48 99.8724L136.465 103.328C137.75 104.077 139.42 104.909 141.452 105.824L143.093 102.176ZM139.355 102.276L144.905 86.8261L141.14 85.4739L135.59 100.924L139.355 102.276ZM142.051 87.8983C144.908 89.4851 148.691 91.0314 153.353 92.5515L154.593 88.7485C150.054 87.2686 146.538 85.8149 143.994 84.4017L142.051 87.8983ZM153.353 92.5515C158.208 94.1348 163.98 94.9 170.623 94.9V90.9C164.266 90.9 158.937 90.1652 154.593 88.7485L153.353 92.5515Z" fill="url(#paint1_linear_1_137)"/>
<defs>
<linearGradient id="paint0_linear_1_137" x1="-33.4508" y1="83.1428" x2="269.174" y2="38.3629" gradientUnits="userSpaceOnUse">
<stop stop-color="#FF6F6F"/>
<stop offset="1" stop-color="#FF7B01"/>
</linearGradient>
<linearGradient id="paint1_linear_1_137" x1="-33.4508" y1="83.1428" x2="269.174" y2="38.3629" gradientUnits="userSpaceOnUse">
<stop stop-color="#FF6F6F"/>
<stop offset="1" stop-color="#FF7B01"/>
</linearGradient>
</defs>
</svg>
