<svg width="214" height="113" viewBox="0 0 214 113" fill="none" xmlns="http://www.w3.org/2000/svg">
<path fill-rule="evenodd" clip-rule="evenodd" d="M57.8079 67.6989C55.5766 68.5325 53.1739 69.2329 50.6 69.8C44.7 71.1 37.95 71.75 30.35 71.75H20.9V108.35H2V5.9C6.4 4.9 11.25 4.25 16.55 3.95C21.95 3.55 26.9 3.35 31.4 3.35C46.5 3.35 58.05 6.1 66.05 11.6C67.9478 12.8886 69.6233 14.3474 71.0764 15.9764C71.5261 16.4805 71.9545 17.0009 72.3616 17.5375C72.814 17.0331 73.2767 16.5405 73.7495 16.0597C73.835 15.9727 73.9209 15.8862 74.007 15.8C78.707 11.2 84.107 7.75 90.207 5.45C96.307 3.15 102.757 2 109.557 2C116.357 2 122.807 3.15 128.907 5.45C134.586 7.5912 139.571 10.7291 143.863 14.8636C144.182 15.1703 144.496 15.4824 144.807 15.8C144.976 15.9689 145.143 16.1392 145.31 16.311C145.673 15.7383 146.06 15.1804 146.471 14.6375C147.72 12.9871 149.187 11.4746 150.873 10.1C157.373 4.7 166.223 2 177.423 2C183.923 2 189.673 2.75 194.673 4.25001C199.773 5.65001 203.773 7.2 206.673 8.9L200.823 24.2C200.239 23.8738 199.645 23.5608 199.04 23.2611C196.125 21.8154 192.969 20.6783 189.573 19.85C185.573 18.85 181.423 18.35 177.123 18.35C172.023 18.35 168.023 19.4 165.123 21.5C162.323 23.6 160.923 26.55 160.923 30.35C160.923 32.65 161.373 34.65 162.273 36.35C163.273 37.95 164.623 39.4 166.323 40.7C168.123 42 170.173 43.2 172.473 44.3C174.873 45.4 177.473 46.45 180.273 47.45C185.173 49.25 189.523 51.1 193.323 53C197.223 54.8 200.473 57 203.073 59.6C205.773 62.1 207.823 65.1 209.223 68.6C210.623 72 211.323 76.15 211.323 81.05C211.323 90.45 207.973 97.75 201.273 102.95C194.673 108.05 184.973 110.6 172.173 110.6C167.873 110.6 163.923 110.3 160.323 109.7C156.823 109.2 153.673 108.55 150.873 107.75C148.173 106.95 145.823 106.15 143.823 105.35C142.396 104.708 141.173 104.117 140.154 103.577C139.744 103.36 139.367 103.151 139.023 102.95L139.515 101.578C139.03 101.928 138.537 102.267 138.037 102.596C137.605 102.88 137.169 103.156 136.727 103.425C134.329 104.885 131.772 106.126 129.057 107.15C122.957 109.45 116.457 110.6 109.557 110.6C102.657 110.6 96.107 109.45 89.907 107.15C83.807 104.85 78.457 101.45 73.857 96.95C69.357 92.35 65.757 86.65 63.057 79.85C61.7194 76.4811 60.7131 72.8545 60.0381 68.9701C59.9216 68.2994 59.8149 67.621 59.7181 66.9349C59.096 67.2009 58.4592 67.4556 57.8079 67.6989ZM131.757 29C134.457 32.2 136.507 36.15 137.907 40.85C139.307 45.45 140.007 50.6 140.007 56.3C140.007 62 139.307 67.2 137.907 71.9C136.507 76.5 134.457 80.45 131.757 83.75C129.157 86.95 125.957 89.45 122.157 91.25C118.357 93.05 114.107 93.95 109.407 93.95C104.607 93.95 100.307 93.05 96.507 91.25C92.707 89.45 89.457 86.95 86.757 83.75C84.157 80.45 82.157 76.5 80.757 71.9C79.357 67.2 78.657 62 78.657 56.3C78.657 50.6 79.357 45.45 80.757 40.85C82.157 36.25 84.157 32.3 86.757 29C89.457 25.7 92.707 23.15 96.507 21.35C100.307 19.55 104.607 18.65 109.407 18.65C114.107 18.65 118.357 19.55 122.157 21.35C125.957 23.15 129.157 25.7 131.757 29ZM88.3167 30.2522C85.8965 33.328 84.0063 37.043 82.6704 41.4323C81.3373 45.8124 80.657 50.7618 80.657 56.3C80.657 61.835 81.3366 66.8375 82.6722 71.3236C84.0062 75.7046 85.8927 79.4138 88.3072 82.4858C90.8176 85.4539 93.8308 87.7693 97.3632 89.4425C100.86 91.0989 104.861 91.95 109.407 91.95C113.846 91.95 117.799 91.1015 121.301 89.4425C124.836 87.7678 127.797 85.4523 130.205 82.4888L130.209 82.4835C132.723 79.4114 134.658 75.7037 135.992 71.3247C137.327 66.8383 138.007 61.8355 138.007 56.3C138.007 50.7618 137.327 45.8124 135.994 41.4323L135.99 41.421C134.656 36.9401 132.723 33.2465 130.228 30.2897L130.207 30.2641L130.186 30.2377C127.777 27.1805 124.822 24.8254 121.301 23.1575C117.799 21.4985 113.846 20.65 109.407 20.65C104.861 20.65 100.86 21.5011 97.3632 23.1575C93.8404 24.8262 90.8294 27.1852 88.3167 30.2522ZM58.1378 69.709C55.9154 70.5186 53.5452 71.1991 51.0304 71.7532C44.9583 73.0911 38.0595 73.75 30.35 73.75H22.9V110.35H0V4.30355L1.55676 3.94974C6.07748 2.9223 11.034 2.25985 16.4196 1.95418C21.8526 1.5521 26.8469 1.35 31.4 1.35C46.6931 1.35 58.7068 4.12665 67.1781 9.94852C69.1697 11.3014 70.929 12.827 72.4585 14.5206C72.5032 14.4756 72.548 14.4306 72.5928 14.3858L72.6004 14.3782L72.6081 14.3707C77.5043 9.57864 83.1399 5.97723 89.5014 3.57861C95.8366 1.18993 102.527 0 109.557 0C116.588 0 123.277 1.18993 129.613 3.57861C135.449 5.77918 140.596 8.99443 145.038 13.2189C146.341 11.5307 147.862 9.97495 149.602 8.55564C156.563 2.77633 165.913 0 177.423 0C184.062 0 190.005 0.76446 195.225 2.32753C200.398 3.74911 204.577 5.35318 207.684 7.1746L209.146 8.03154L201.865 27.0737L199.847 25.9459C196.617 24.141 193.038 22.7538 189.099 21.793L189.088 21.7903C185.253 20.8316 181.266 20.35 177.123 20.35C172.28 20.35 168.75 21.3483 166.309 23.1101C164.07 24.7956 162.923 27.1235 162.923 30.35C162.923 32.3562 163.308 34.0029 164.007 35.3517C164.857 36.6928 166.015 37.9436 167.516 39.095C169.197 40.3066 171.129 41.4396 173.321 42.4887C175.658 43.5594 178.199 44.5857 180.945 45.5665L180.954 45.5696L180.962 45.5727C185.905 47.3884 190.316 49.2624 194.189 51.1972C198.243 53.0714 201.679 55.3849 204.46 58.1587C207.367 60.8579 209.573 64.0955 211.076 67.848C212.6 71.5535 213.323 75.9752 213.323 81.05C213.323 90.9913 209.745 98.9065 202.499 104.53L202.496 104.533C195.402 110.014 185.192 112.6 172.173 112.6C167.791 112.6 163.737 112.295 160.017 111.677C156.454 111.167 153.221 110.501 150.323 109.673L150.314 109.67L150.304 109.668C147.562 108.855 145.151 108.036 143.08 107.207L143.041 107.191L143.002 107.174C141.101 106.318 139.517 105.535 138.268 104.824C135.619 106.483 132.783 107.883 129.763 109.021C123.424 111.411 116.684 112.6 109.557 112.6C102.43 112.6 95.6436 111.411 89.2114 109.025L89.2014 109.021C82.8458 106.625 77.259 103.076 72.4585 98.3797L72.4427 98.3643L72.4274 98.3486C67.7182 93.5348 63.9827 87.6009 61.1982 80.5881C59.8515 77.1965 58.8333 73.5687 58.1378 69.709ZM161.758 59.2466C161.095 58.9725 160.436 58.6947 159.781 58.4132C159.763 59.1337 159.736 59.847 159.7 60.5532C159.333 67.7221 158.019 74.1544 155.757 79.85C154.569 82.9578 153.172 85.8358 151.566 88.484C151.211 89.0688 150.846 89.6424 150.471 90.2049C151.087 90.4453 151.727 90.6856 152.391 90.926C153.381 91.284 154.425 91.642 155.523 92C160.123 93.5 165.673 94.25 172.173 94.25C178.973 94.25 183.923 93.1 187.023 90.8C190.123 88.5 191.673 85.25 191.673 81.05C191.673 78.55 191.123 76.4 190.023 74.6C189.023 72.8 187.523 71.2 185.523 69.8C183.623 68.3 181.273 66.95 178.473 65.75C175.673 64.45 172.473 63.2 168.873 62C166.456 61.1273 164.084 60.2095 161.758 59.2466ZM153.475 89.19C154.321 89.4916 155.21 89.7945 156.143 90.0985C160.487 91.5152 165.816 92.25 172.173 92.25C178.833 92.25 183.252 91.1071 185.831 89.1938C188.373 87.308 189.673 84.6815 189.673 81.05C189.673 78.8492 189.191 77.075 188.316 75.6429L188.294 75.6075L188.274 75.5713C187.447 74.0812 186.173 72.6966 184.376 71.4385L184.329 71.4054L184.283 71.3698C182.552 70.0026 180.363 68.736 177.685 67.5883L177.657 67.5766L177.63 67.564C174.912 66.3019 171.784 65.0787 168.24 63.8974L168.217 63.8895L168.193 63.8811C165.978 63.0812 163.8 62.2435 161.658 61.3682C161.233 68.4324 159.896 74.8421 157.62 80.5767C156.442 83.6571 155.061 86.5294 153.475 89.19ZM42.4555 22.5704L42.42 22.5636C39.4612 21.9909 36.2398 21.7 32.75 21.7C28.8879 21.7 25.6078 21.798 22.9 21.9903V53.55H30.05C39.0066 53.55 45.6349 52.3129 50.1265 50.0259C54.1738 47.8718 56.4 43.8455 56.4 37.25C56.4 34.0982 55.7972 31.6097 54.7089 29.6841C53.5877 27.7006 52.0494 26.1623 50.0659 25.0411C48.0164 23.8827 45.5057 23.047 42.4912 22.576L42.4555 22.5704ZM51.05 51.8C46.15 54.3 39.15 55.55 30.05 55.55H20.9V20.15C24 19.85 27.95 19.7 32.75 19.7C36.35 19.7 39.7 20 42.8 20.6C46 21.1 48.75 22 51.05 23.3C53.35 24.6 55.15 26.4 56.45 28.7C57.75 31 58.4 33.85 58.4 37.25C58.4 44.35 55.95 49.2 51.05 51.8Z" fill="url(#paint0_linear_7_246)"/>
<defs>
<linearGradient id="paint0_linear_7_246" x1="-31.5279" y1="66.493" x2="242.43" y2="-24.0364" gradientUnits="userSpaceOnUse">
<stop stop-color="#FF6F6F"/>
<stop offset="1" stop-color="#FF7B01"/>
</linearGradient>
</defs>
</svg>
