<svg width="1400" height="113" viewBox="0 0 1400 113" fill="none" xmlns="http://www.w3.org/2000/svg">
<rect x="135" y="55" width="352" height="1" fill="#303030"/>
<rect x="913" y="55" width="352" height="1" fill="#303030"/>
<path fill-rule="evenodd" clip-rule="evenodd" d="M650.808 67.6989C648.577 68.5325 646.174 69.2329 643.6 69.8C637.7 71.1 630.95 71.75 623.35 71.75H613.9V108.35H595V5.9C599.4 4.9 604.25 4.25 609.55 3.95C614.95 3.55 619.9 3.35 624.4 3.35C639.5 3.35 651.05 6.1 659.05 11.6C660.948 12.8886 662.623 14.3474 664.076 15.9764C664.526 16.4805 664.954 17.0009 665.362 17.5375C665.814 17.0331 666.277 16.5405 666.75 16.0597C666.835 15.9727 666.921 15.8862 667.007 15.8C671.707 11.2 677.107 7.75 683.207 5.45C689.307 3.15 695.757 2 702.557 2C709.357 2 715.807 3.15 721.907 5.45C727.586 7.5912 732.571 10.7291 736.863 14.8636C737.182 15.1703 737.496 15.4824 737.807 15.8C737.976 15.9689 738.143 16.1392 738.31 16.311C738.673 15.7383 739.06 15.1804 739.471 14.6375C740.72 12.9871 742.187 11.4746 743.873 10.1C750.373 4.7 759.223 2 770.423 2C776.923 2 782.673 2.75 787.673 4.25001C792.773 5.65001 796.773 7.2 799.673 8.9L793.823 24.2C793.239 23.8738 792.645 23.5608 792.04 23.2611C789.125 21.8154 785.969 20.6783 782.573 19.85C778.573 18.85 774.423 18.35 770.123 18.35C765.023 18.35 761.023 19.4 758.123 21.5C755.323 23.6 753.923 26.55 753.923 30.35C753.923 32.65 754.373 34.65 755.273 36.35C756.273 37.95 757.623 39.4 759.323 40.7C761.123 42 763.173 43.2 765.473 44.3C767.873 45.4 770.473 46.45 773.273 47.45C778.173 49.25 782.523 51.1 786.323 53C790.223 54.8 793.473 57 796.073 59.6C798.773 62.1 800.823 65.1 802.223 68.6C803.623 72 804.323 76.15 804.323 81.05C804.323 90.45 800.973 97.75 794.273 102.95C787.673 108.05 777.973 110.6 765.173 110.6C760.873 110.6 756.923 110.3 753.323 109.7C749.823 109.2 746.673 108.55 743.873 107.75C741.173 106.95 738.823 106.15 736.823 105.35C735.396 104.708 734.173 104.117 733.154 103.577C732.744 103.36 732.367 103.151 732.023 102.95L732.515 101.578C732.03 101.928 731.537 102.267 731.037 102.596C730.605 102.88 730.169 103.156 729.727 103.425C727.329 104.885 724.772 106.126 722.057 107.15C715.957 109.45 709.457 110.6 702.557 110.6C695.657 110.6 689.107 109.45 682.907 107.15C676.807 104.85 671.457 101.45 666.857 96.95C662.357 92.35 658.757 86.65 656.057 79.85C654.719 76.4811 653.713 72.8545 653.038 68.9701C652.922 68.2994 652.815 67.621 652.718 66.9349C652.096 67.2009 651.459 67.4556 650.808 67.6989ZM724.757 29C727.457 32.2 729.507 36.15 730.907 40.85C732.307 45.45 733.007 50.6 733.007 56.3C733.007 62 732.307 67.2 730.907 71.9C729.507 76.5 727.457 80.45 724.757 83.75C722.157 86.95 718.957 89.45 715.157 91.25C711.357 93.05 707.107 93.95 702.407 93.95C697.607 93.95 693.307 93.05 689.507 91.25C685.707 89.45 682.457 86.95 679.757 83.75C677.157 80.45 675.157 76.5 673.757 71.9C672.357 67.2 671.657 62 671.657 56.3C671.657 50.6 672.357 45.45 673.757 40.85C675.157 36.25 677.157 32.3 679.757 29C682.457 25.7 685.707 23.15 689.507 21.35C693.307 19.55 697.607 18.65 702.407 18.65C707.107 18.65 711.357 19.55 715.157 21.35C718.957 23.15 722.157 25.7 724.757 29ZM681.317 30.2522C678.897 33.328 677.006 37.043 675.67 41.4323C674.337 45.8124 673.657 50.7618 673.657 56.3C673.657 61.835 674.337 66.8375 675.672 71.3236C677.006 75.7046 678.893 79.4138 681.307 82.4858C683.818 85.4539 686.831 87.7693 690.363 89.4425C693.86 91.0989 697.861 91.95 702.407 91.95C706.846 91.95 710.799 91.1015 714.301 89.4425C717.836 87.7678 720.797 85.4523 723.205 82.4888L723.209 82.4835C725.723 79.4114 727.658 75.7037 728.992 71.3247C730.327 66.8383 731.007 61.8355 731.007 56.3C731.007 50.7618 730.327 45.8124 728.994 41.4323L728.99 41.421C727.656 36.9401 725.723 33.2465 723.228 30.2897L723.207 30.2641L723.186 30.2377C720.777 27.1805 717.822 24.8254 714.301 23.1575C710.799 21.4985 706.846 20.65 702.407 20.65C697.861 20.65 693.86 21.5011 690.363 23.1575C686.84 24.8262 683.829 27.1852 681.317 30.2522ZM651.138 69.709C648.915 70.5186 646.545 71.1991 644.03 71.7532C637.958 73.0911 631.059 73.75 623.35 73.75H615.9V110.35H593V4.30355L594.557 3.94974C599.077 2.9223 604.034 2.25985 609.42 1.95418C614.853 1.5521 619.847 1.35 624.4 1.35C639.693 1.35 651.707 4.12665 660.178 9.94852C662.17 11.3014 663.929 12.827 665.459 14.5206C665.503 14.4756 665.548 14.4306 665.593 14.3858L665.6 14.3782L665.608 14.3707C670.504 9.57864 676.14 5.97723 682.501 3.57861C688.837 1.18993 695.527 0 702.557 0C709.588 0 716.277 1.18993 722.613 3.57861C728.449 5.77918 733.596 8.99443 738.038 13.2189C739.341 11.5307 740.862 9.97495 742.602 8.55564C749.563 2.77633 758.913 0 770.423 0C777.062 0 783.005 0.76446 788.225 2.32753C793.398 3.74911 797.577 5.35318 800.684 7.1746L802.146 8.03154L794.865 27.0737L792.847 25.9459C789.617 24.141 786.038 22.7538 782.099 21.793L782.088 21.7903C778.253 20.8316 774.266 20.35 770.123 20.35C765.28 20.35 761.75 21.3483 759.309 23.1101C757.07 24.7956 755.923 27.1235 755.923 30.35C755.923 32.3562 756.308 34.0029 757.007 35.3517C757.857 36.6928 759.015 37.9436 760.516 39.095C762.197 40.3066 764.129 41.4396 766.321 42.4887C768.658 43.5594 771.199 44.5857 773.945 45.5665L773.954 45.5696L773.962 45.5727C778.905 47.3884 783.316 49.2624 787.189 51.1972C791.243 53.0714 794.679 55.3849 797.46 58.1587C800.367 60.8579 802.573 64.0955 804.076 67.848C805.6 71.5535 806.323 75.9752 806.323 81.05C806.323 90.9913 802.745 98.9065 795.499 104.53L795.496 104.533C788.402 110.014 778.192 112.6 765.173 112.6C760.791 112.6 756.737 112.295 753.017 111.677C749.454 111.167 746.221 110.501 743.323 109.673L743.314 109.67L743.304 109.668C740.562 108.855 738.151 108.036 736.08 107.207L736.041 107.191L736.002 107.174C734.101 106.318 732.517 105.535 731.268 104.824C728.619 106.483 725.783 107.883 722.763 109.021C716.424 111.411 709.684 112.6 702.557 112.6C695.43 112.6 688.644 111.411 682.211 109.025L682.201 109.021C675.846 106.625 670.259 103.076 665.458 98.3797L665.443 98.3643L665.427 98.3486C660.718 93.5348 656.983 87.6009 654.198 80.5881C652.852 77.1965 651.833 73.5687 651.138 69.709ZM754.758 59.2466C754.095 58.9725 753.436 58.6947 752.781 58.4132C752.763 59.1337 752.736 59.847 752.7 60.5532C752.333 67.7221 751.019 74.1544 748.757 79.85C747.569 82.9578 746.172 85.8358 744.566 88.484C744.211 89.0688 743.846 89.6424 743.471 90.2049C744.087 90.4453 744.727 90.6856 745.391 90.926C746.381 91.284 747.425 91.642 748.523 92C753.123 93.5 758.673 94.25 765.173 94.25C771.973 94.25 776.923 93.1 780.023 90.8C783.123 88.5 784.673 85.25 784.673 81.05C784.673 78.55 784.123 76.4 783.023 74.6C782.023 72.8 780.523 71.2 778.523 69.8C776.623 68.3 774.273 66.95 771.473 65.75C768.673 64.45 765.473 63.2 761.873 62C759.456 61.1273 757.084 60.2095 754.758 59.2466ZM746.475 89.19C747.321 89.4916 748.21 89.7945 749.143 90.0985C753.487 91.5152 758.816 92.25 765.173 92.25C771.833 92.25 776.252 91.1071 778.831 89.1938C781.373 87.308 782.673 84.6815 782.673 81.05C782.673 78.8492 782.191 77.0749 781.316 75.6429L781.294 75.6075L781.274 75.5713C780.447 74.0812 779.173 72.6966 777.376 71.4385L777.329 71.4054L777.283 71.3698C775.552 70.0026 773.363 68.736 770.685 67.5883L770.657 67.5766L770.63 67.564C767.912 66.3019 764.784 65.0787 761.24 63.8974L761.217 63.8895L761.193 63.8811C758.978 63.0812 756.8 62.2435 754.658 61.3682C754.233 68.4324 752.896 74.8421 750.62 80.5767C749.442 83.6571 748.061 86.5294 746.475 89.19ZM635.455 22.5704L635.42 22.5636C632.461 21.9909 629.24 21.7 625.75 21.7C621.888 21.7 618.608 21.798 615.9 21.9903V53.55H623.05C632.007 53.55 638.635 52.3129 643.127 50.0259C647.174 47.8718 649.4 43.8455 649.4 37.25C649.4 34.0982 648.797 31.6097 647.709 29.6841C646.588 27.7006 645.049 26.1623 643.066 25.0411C641.016 23.8827 638.506 23.047 635.491 22.576L635.455 22.5704ZM644.05 51.8C639.15 54.3 632.15 55.55 623.05 55.55H613.9V20.15C617 19.85 620.95 19.7 625.75 19.7C629.35 19.7 632.7 20 635.8 20.6C639 21.1 641.75 22 644.05 23.3C646.35 24.6 648.15 26.4 649.45 28.7C650.75 31 651.4 33.85 651.4 37.25C651.4 44.35 648.95 49.2 644.05 51.8Z" fill="url(#paint0_linear_10_114)"/>
<defs>
<linearGradient id="paint0_linear_10_114" x1="561.472" y1="66.493" x2="835.43" y2="-24.0364" gradientUnits="userSpaceOnUse">
<stop stop-color="#FF6F6F"/>
<stop offset="1" stop-color="#FF7B01"/>
</linearGradient>
</defs>
</svg>
